<?xml version="1.0" encoding="utf-8"?>
<!-- Generator: Adobe Illustrator 19.0.0, SVG Export Plug-In . SVG Version: 6.00 Build 0)  -->
<svg version="1.1" id="Capa_1" xmlns="http://www.w3.org/2000/svg" xmlns:xlink="http://www.w3.org/1999/xlink" x="0px" y="0px"
	 viewBox="-456 257 47 47" style="enable-background:new -456 257 47 47;" xml:space="preserve">
<style type="text/css">
	.st0{fill:#F50430;stroke:#F50430;stroke-miterlimit:10;}
</style>
<g>
	<g>
		<path class="st0" d="M-432.7,290.1c0.5,0,0.8-0.3,0.8-0.8v-8.4h8c0.5,0,0.8-0.3,0.8-0.8c0-0.5-0.3-0.8-0.8-0.8h-8v-7.7
			c0-0.5-0.3-0.8-0.8-0.8c-0.5,0-0.8,0.3-0.8,0.8v7.7h-7.6c-0.5,0-0.8,0.3-0.8,0.8c0,0.5,0.3,0.8,0.8,0.8h7.6v8.4
			C-433.5,289.8-433.2,290.1-432.7,290.1z"/>
	</g>
</g>
</svg>
