<?xml version="1.0" encoding="utf-8"?>
<!-- Generator: Adobe Illustrator 19.0.0, SVG Export Plug-In . SVG Version: 6.00 Build 0)  -->
<svg version="1.1" id="Capa_1" xmlns="http://www.w3.org/2000/svg" xmlns:xlink="http://www.w3.org/1999/xlink" x="0px" y="0px"
	 viewBox="-236 37.6 486.4 486.4" style="enable-background:new -236 37.6 486.4 486.4;" xml:space="preserve">
<style type="text/css">
	.st0{fill:#F50430;stroke:#F50430;stroke-miterlimit:10;}
</style>
<g>
	<g>
		<path class="st0" d="M109.9,193.1H58.7v-8.4c0-14.9-12.2-27.1-27.1-27.1h-48.7c-14.9,0-27.1,12.2-27.1,27.1v8.4h-51.3
			c-3.8,0-6.8,3-6.8,6.8s3,6.8,6.8,6.8h12.4v160.7c0,20.2,16.4,36.6,36.6,36.6H61c20.2,0,36.6-16.4,36.6-36.6V206.7h12.4
			c3.8,0,6.8-3,6.8-6.8S113.7,193.1,109.9,193.1z M-30.6,184.7c0-7.4,6-13.4,13.4-13.4h48.7c7.4,0,13.4,6,13.4,13.4v8.4h-75.6V184.7
			z M83.9,367.4c0,12.6-10.3,22.9-22.9,22.9H-46.6c-12.6,0-22.9-10.3-22.9-22.9V206.7H83.9L83.9,367.4L83.9,367.4z"/>
		<path class="st0" d="M7.2,365.8c3.8,0,6.8-3,6.8-6.8V238.1c0-3.8-3-6.8-6.8-6.8s-6.8,3-6.8,6.8v120.8
			C0.4,362.7,3.4,365.8,7.2,365.8z"/>
		<path class="st0" d="M-37.4,358.3c3.8,0,6.8-3,6.8-6.8V245.6c0-3.8-3-6.8-6.8-6.8s-6.8,3-6.8,6.8v105.8
			C-44.3,355.2-41.2,358.3-37.4,358.3z"/>
		<path class="st0" d="M51.8,358.3c3.8,0,6.8-3,6.8-6.8V245.6c0-3.8-3-6.8-6.8-6.8s-6.8,3-6.8,6.8v105.8
			C45,355.2,48,358.3,51.8,358.3z"/>
	</g>
</g>
</svg>
