<?xml version="1.0" encoding="utf-8"?>
<!-- Generator: Adobe Illustrator 19.0.0, SVG Export Plug-In . SVG Version: 6.00 Build 0)  -->
<svg version="1.1" id="Layer_1" xmlns="http://www.w3.org/2000/svg" xmlns:xlink="http://www.w3.org/1999/xlink" x="0px" y="0px"
	 viewBox="-223 25 512 512" style="enable-background:new -223 25 512 512;" xml:space="preserve">
<style type="text/css">
	.st0{fill:#FFFFFF;stroke:#FFFFFF;stroke-miterlimit:10;}
</style>
<g>
	<g>
		<path class="st0" d="M160.3,175.4l-15.2-15.2c0,0,0,0,0,0c-6.3-6.3-14.6-9.7-23.5-9.7c-8.9,0-17.2,3.5-23.5,9.7l-77.5,77.5
			c0,0,0,0,0,0l0,0L-83.1,341.6c0,0,0,0,0,0c-0.1,0.1-0.2,0.3-0.4,0.4c0,0,0,0-0.1,0.1c-0.1,0.1-0.2,0.3-0.3,0.4c0,0,0,0.1-0.1,0.1
			c-0.1,0.1-0.2,0.3-0.2,0.4c0,0.1-0.1,0.1-0.1,0.1c-0.1,0.1-0.1,0.2-0.2,0.3c0,0.1-0.1,0.2-0.1,0.2c0,0.1-0.1,0.2-0.1,0.3
			c0,0.1-0.1,0.2-0.1,0.3c0,0,0,0,0,0.1l-14.4,51.1l-5.1,5.1c-2.5,2.5-2.5,6.5,0,9c1.2,1.2,2.9,1.9,4.5,1.9s3.3-0.6,4.5-1.9l5.1-5.1
			l51.1-14.4c0,0,0,0,0,0c0.2,0,0.3-0.1,0.5-0.2c0,0,0.1,0,0.1,0c0.1-0.1,0.3-0.1,0.4-0.2c0.1,0,0.1,0,0.2-0.1
			c0.1,0,0.2-0.1,0.3-0.2c0.1-0.1,0.2-0.1,0.3-0.2c0.1,0,0.1-0.1,0.2-0.1c0.1-0.1,0.2-0.2,0.4-0.3c0,0,0.1-0.1,0.1-0.1
			c0.1-0.1,0.2-0.2,0.4-0.3c0,0,0,0,0,0L67.7,284.7c0,0,0,0,0,0c0,0,0,0,0,0l77.5-77.5c5.3-5.3,8.4-12,9.4-18.9
			c3.1,4.5,4.7,9.8,4.7,15.4c0,7.3-2.8,14.1-8,19.2l-66,66c-2.5,2.5-2.5,6.5,0,9c1.2,1.2,2.9,1.9,4.5,1.9c1.6,0,3.3-0.6,4.5-1.9
			l66-66c7.5-7.5,11.7-17.6,11.7-28.2S167.8,183,160.3,175.4z M-84.2,389.7l8.8-31.4l22.6,22.6L-84.2,389.7z M-40.7,375l-28.9-28.9
			l94.9-94.9l28.9,28.9L-40.7,375z M136.2,198.2l-73,73l-28.9-28.9l73-73c3.9-3.9,9-6,14.5-6c5.5,0,10.6,2.1,14.5,6c0,0,0,0,0,0l0,0
			C144.1,177.3,144.1,190.2,136.2,198.2z"/>
	</g>
</g>
</svg>
